<svg width="123" height="24" viewBox="0 0 123 24" fill="none" xmlns="http://www.w3.org/2000/svg">
<g clip-path="url(#clip0)">
<path d="M46.5072 15.5616C46.273 13.9243 45.4974 13.0287 44.0047 12.5389V12.4689C46.0096 11.7972 46.9901 10.3978 46.9901 8.4806C46.9901 5.41587 44.3852 3.73657 40.9608 3.73657H32.7218V6.96923H36.9803H37.6681H40.2876C41.9267 6.96923 42.7462 7.82287 42.7462 9.02637C42.7462 10.2718 41.8828 11.0275 40.1852 11.0275H37.6681H36.9803H36.4828H32.7218V20.2217H36.9803V14.0503H39.5559C41.3852 14.0503 42.2047 14.8759 42.4242 16.4013C42.6876 18.0386 42.6145 19.9698 43.0681 20.2217H47.2096V20.0118C46.6242 19.8019 46.873 17.7307 46.5072 15.5616Z" fill="white"/>
<path d="M0 12.049C0 7.15108 3.35122 3.44263 8.47317 3.44263C10.4781 3.44263 12.161 3.9884 13.3902 4.89802C14.8829 5.97557 15.7463 7.5849 15.9659 9.43213H11.6927C11.4732 7.96274 10.2732 6.82922 8.4439 6.82922C5.64878 6.82922 4.33171 9.06828 4.33171 12.049C4.33171 15.0578 5.92683 17.2549 8.47317 17.2549C10.3756 17.2549 11.6195 16.1073 11.8244 14.512H16.0829C15.9659 16.1493 15.1902 17.6467 14.0195 18.7243C12.7024 19.9418 10.9317 20.5855 8.50244 20.5855C3.43902 20.5855 0 16.975 0 12.049Z" fill="white"/>
<path d="M17.5905 3.75024H30.6588V7.10885H21.8637V10.0616H29.4003V13.2383H21.8637V16.7648H30.8052V20.2214H17.5905V3.75024Z" fill="white"/>
<path d="M78.0588 3.65356V16.7521V20.2227H82.3466H87.6441L89.1076 16.7521H82.3466V3.65356H78.0588Z" fill="white"/>
<path d="M96.1036 13.7284L98.2548 8.01877H98.3134L103.026 20.2217H107.299L100.684 3.65259H96.0304L89.4451 20.2217H93.6597L96.1036 13.7284Z" fill="white"/>
<path d="M122.283 15.5335C122.034 13.8822 121.259 12.9865 119.766 12.4967V12.4268C121.771 11.755 122.766 10.3416 122.766 8.41044C122.766 5.33172 120.147 3.63843 116.708 3.63843H108.425V6.88507H112.713H113.576H116.034C117.688 6.88507 118.508 7.73872 118.508 8.94222C118.508 10.1877 117.63 10.9574 115.932 10.9574H112.713H108.425V20.2075H112.713V13.9941H115.303C117.147 13.9941 117.966 14.8338 118.186 16.3591C118.449 18.0104 118.376 19.9556 118.844 20.2075H123.015V20.0116C122.4 19.8017 122.634 17.7166 122.283 15.5335Z" fill="white"/>
<path d="M74.693 11.993C74.693 5.37376 69.0735 0 62.1516 0C55.2296 0 49.6101 5.37376 49.6101 11.993C49.6101 18.6122 55.2296 23.986 62.1516 23.986C63.015 23.986 63.8638 23.902 64.6833 23.7341L60.0442 19.312C56.693 18.4303 54.2052 15.4776 54.2052 11.993C54.2052 7.80875 57.7613 4.39417 62.1516 4.39417C66.5272 4.39417 70.0979 7.79475 70.0979 11.993C70.0979 13.2805 69.7613 14.512 69.1613 15.5755L66.5125 13.0426L64.8881 14.5959L63.2638 16.1493L71.254 23.7901L72.8784 22.2367L74.5028 20.6834L72.5125 18.7802C73.8735 16.849 74.693 14.512 74.693 11.993Z" fill="white"/>
</g>
<defs>
<clipPath id="clip0">
<rect width="123" height="24" fill="white"/>
</clipPath>
</defs>
</svg>
